<svg width="95" height="22" viewBox="0 0 95 22" fill="none" xmlns="http://www.w3.org/2000/svg">
<path fill-rule="evenodd" clip-rule="evenodd" d="M83.041 18.6477C78.8102 18.6477 75.2361 15.0419 75.2361 10.7739C75.2361 6.50563 78.8102 2.89981 83.041 2.89981C87.2718 2.89981 90.8459 6.50563 90.8459 10.7739H90.8454C90.8454 12.3929 90.3303 13.916 89.4609 15.1838L87.0832 12.8063L85.1063 14.7832L87.506 17.1829C86.231 18.1006 84.6864 18.6477 83.041 18.6477ZM94.1085 19.8313L91.7327 17.4556C93.2135 15.6359 94.0908 13.323 94.0908 10.7739C94.0908 4.76908 89.237 0.065918 83.041 0.065918C76.8445 0.065918 71.9907 4.76908 71.9907 10.7739C71.9907 16.7784 76.8445 21.4818 83.041 21.4818C85.5613 21.4818 87.8595 20.7034 89.6993 19.3759L92.1316 21.8082L94.1085 19.8313Z" fill="#13395B"/>
<path fill-rule="evenodd" clip-rule="evenodd" d="M0.189209 21.037V0.508789H3.22956V18.2028H15.6286V21.037H0.189209Z" fill="#13395B"/>
<path fill-rule="evenodd" clip-rule="evenodd" d="M51.8746 11.4399H58.279C61.6194 11.4399 62.8045 9.25947 62.8045 7.39165C62.8045 5.52406 61.6194 3.34365 58.279 3.34365H51.8746V11.4399ZM61.9083 21.037L57.4336 14.2747H51.8746V21.037H48.8342V0.508789H58.5863C62.9278 0.508789 65.8448 3.2745 65.8448 7.39165C65.8448 10.1622 64.0014 12.5237 61.1482 13.4068L60.5443 13.5942L65.7614 21.037H61.9083Z" fill="#13395B"/>
<path fill-rule="evenodd" clip-rule="evenodd" d="M25.7154 21.037L32.1012 5.35145L38.4302 21.037H41.8208L33.7601 2.00672C33.3755 1.09868 32.4851 0.508789 31.499 0.508789H25.0111V1.03969C25.0111 2.19892 25.9509 3.13864 27.1103 3.13864H30.1732L22.3516 21.037H25.7154Z" fill="#13395B"/>
</svg>
